{"title":"Dalziel &amp; Pascoe S05","uid":15508728,"size":2725866561,"categoryP":"video","categoryS":"handheld","magnet":"?xt=urn:btih:8f0cbeb2d8c02119b90956b76fbcbb6f60b5d18e&amp;dn=Dalziel+%26amp%3B+Pascoe+S05&amp;tr=udp%3A%2F%2Ftracker.leechers-paradise.org%3A6969&amp;tr=udp%3A%2F%2Fzer0day.ch%3A1337&amp;tr=udp%3A%2F%2Fopen.demonii.com%3A1337&amp;tr=udp%3A%2F%2Ftracker.coppersurfer.tk%3A6969&amp;tr=udp%3A%2F%2Fexodus.desync.com%3A6969","seeders":2,"leechers":3,"uploader":"RedBaron58","files":4,"time":1470619563,"description":"Dalziel and Pascoe S05 DVDrip x264 mp4\r\n  \nhttp://www.imdb.com/title/tt0147760/\r\n\r\nThank you for your kind comments and feedback on my other torrents, your feedback is welcome.\r\n\r\nUploader note, minor pixelation and sound problem at 8 mins on episode 3 which recovers in \r\nfew seconds.\r\n\r\nAbout the Series:\r\nThe series is primarily set in Yorkshire, and follows the work of two detectives that are \r\nthrown together as partners. Complete opposites. Different backgrounds, different beliefs, \r\ndifferent styles. They get on each other's nerves.\r\n\r\nEpisode 1 &quot;A Sweeter Lazarus&quot;\r\nWhen a suspected serial killer jumps to his death from the roof of a homeless hostel, \r\nthe only witness is a homeless girl, who goes by the name of Abbie Hallingsworth, \r\na girl who has been missing for nineteen years\r\n\r\nEpisode 2 &quot;Cunning Old Fox&quot;\r\nThe death of Georgina Webster, a young business woman who falls from her horse during \r\na fox hunt, turns out to be more than an accident when the leader of the hunt is sent \r\na letter to that effect\r\n\r\nEpisode 3 &quot;Foreign Bodies&quot;\r\nDalziel and Pascoe are tasked with investigating four suspicious deaths that occur \r\nwithin hours of each other.\r\n\r\nEpisode 4 &quot;Above the Law&quot;\r\nWhen high court judge Jerry Chance is shot dead at point blank range, the immediate \r\nsuspect is large-scale drugs importer Kenneth Barbour.\r\n\r\nI hope you enjoy.\r\n\r\nTechnical: (All episodes are encoded to the same settings)\r\n\r\nGeneral\r\nComplete name                            : I:Dalziel &amp; Pascoe S05Dalziel Pascoe S05E01 - A Sweeter Lazarus x264 RB58.mp4\r\nFormat                                   : MPEG-4\r\nFormat profile                           : Base Media / Version 2\r\nCodec ID                                 : mp42\r\nFile size                                : 646 MiB\r\nDuration                                 : 1h 30mn\r\nOverall bit rate mode                    : Variable\r\nOverall bit rate                         : 1 000 Kbps\r\nEncoded date                             : UTC 2016-07-31 16:08:18\r\nTagged date                              : UTC 2016-07-31 16:11:21\r\nWriting application                      : HandBrake 0.9.8 2012071700\r\n\r\nVideo\r\nID                                       : 1\r\nFormat                                   : AVC\r\nFormat/Info                              : Advanced Video Codec\r\nFormat profile                           :   \r\nFormat settings, CABAC                   : Yes\r\nFormat settings, ReFrames                : 4 frames\r\nCodec ID                                 : avc1\r\nCodec ID/Info                            : Advanced Video Coding\r\nDuration                                 : 1h 30mn\r\nBit rate                                 : 900 Kbps\r\nWidth                                    : 720 pixels\r\nHeight                                   : 572 pixels\r\nDisplay aspect ratio                     : 16:9\r\nFrame rate mode                          : Constant\r\nFrame rate                               : 25.000 fps\r\nColor space                              : YUV\r\nChroma subsampling                       : 4:2:0\r\nBit depth                                : 8 bits\r\nScan type                                : Progressive\r\nBits/(Pixel*Frame)                       : 0.087\r\nStream size                              : 581 MiB (90%)\r\nWriting library                          : x264 core 120\r\nEncoding settings                        : cabac=1 / ref=1 / deblock=1:0:0\r\nEncoded date                             : UTC 2016-07-31 16:08:18\r\nTagged date                              : UTC 2016-07-31 16:11:21\r\nColor range                              : Limited\r\nColor primaries                          : BT.601 NTSC\r\nTransfer characteristics                 : BT.709\r\nMatrix coefficients                      : BT.601\r\n\r\nAudio\r\nID                                       : 2\r\nFormat                                   : AAC\r\nFormat/Info                              : Advanced Audio Codec\r\nFormat profile                           : LC\r\nCodec ID                                 : 40\r\nDuration                                 : 1h 30mn\r\nBit rate mode                            : Variable\r\nBit rate                                 : 96.0 Kbps\r\nMaximum bit rate                         : 118 Kbps\r\nChannel(s)                               : 2 channels\r\nChannel positions                        : Front: L R\r\nSampling rate                            : 48.0 KHz\r\nCompression mode                         : Lossy\r\nStream size                              : 62.0 MiB (10%)\r\nTitle                                    : Stereo\r\nLanguage                                 : English","torrent":{"xt":"urn:btih:8f0cbeb2d8c02119b90956b76fbcbb6f60b5d18e","amp;dn":"Dalziel+%26amp%3B+Pascoe+S05","amp;tr":["udp%3A%2F%2Ftracker.leechers-paradise.org%3A6969","udp%3A%2F%2Fzer0day.ch%3A1337","udp%3A%2F%2Fopen.demonii.com%3A1337","udp%3A%2F%2Ftracker.coppersurfer.tk%3A6969","udp%3A%2F%2Fexodus.desync.com%3A6969"],"infoHash":"8f0cbeb2d8c02119b90956b76fbcbb6f60b5d18e","infoHashBuffer":{"type":"Buffer","data":[143,12,190,178,216,192,33,25,185,9,86,183,111,188,187,111,96,181,209,142]},"announce":[],"urlList":[]}}